<svg width="35" height="35" viewBox="0 0 35 35" fill="none" xmlns="http://www.w3.org/2000/svg">
    <ellipse opacity="0.5" cx="17.3979" cy="17.5" rx="17.3979" ry="17.5" fill="url(#paint0_linear)"/>
    <path fill-rule="evenodd" clip-rule="evenodd" d="M21.3823 17.5V29.0878C21.3823 29.7973 21.6171 30.3176 22.1337 30.6959C22.6502 31.0743 23.2606 31.2162 23.965 31.2162C24.6694 31.2162 25.2329 31.027 25.7494 30.6959C26.2659 30.3176 26.5007 29.7973 26.5007 29.0878V17.5C25.7024 17.6892 24.8102 17.8311 23.8711 17.8311C23.0728 17.8311 22.2276 17.7365 21.3823 17.5Z" fill="#E22EFF"/>
    <path fill-rule="evenodd" clip-rule="evenodd" d="M6.68435 31.1219V21.1895H0.579834C1.37812 25.257 3.86688 28.8043 6.68435 31.1219Z" fill="#E22EFF"/>
    <path fill-rule="evenodd" clip-rule="evenodd" d="M4.94702 17.5H12.9298V9.45947L8.93843 13.7635L4.94702 9.45947V17.5Z" fill="#E22EFF"/>
    <path fill-rule="evenodd" clip-rule="evenodd" d="M28.4259 8.74991C28.4259 7.1891 28.0033 5.95937 27.1111 5.10802C26.2658 4.20937 25.2328 3.78369 24.0119 3.78369C22.744 3.78369 21.7109 4.20937 20.8187 5.06072C19.9265 5.91207 19.5039 7.1418 19.5039 8.74991C19.5039 10.3107 19.9265 11.4932 20.8187 12.3918C21.7109 13.2905 22.744 13.7161 23.9649 13.7161C25.1858 13.7161 26.2189 13.2905 27.1111 12.3918C28.0033 11.4932 28.4259 10.3107 28.4259 8.74991Z" fill="#E22EFF"/>
    <path fill-rule="evenodd" clip-rule="evenodd" d="M11.0518 21.2837V33.7229C13.0709 34.5269 15.3249 34.9999 17.6258 34.9999C18.7528 34.9999 19.8329 34.9053 20.9129 34.7161C20.2555 34.4323 19.5981 34.1959 19.0346 33.7229C17.6258 32.635 16.8745 31.1215 16.8745 29.1823V21.2837H11.0518Z" fill="#E22EFF"/>
    <path fill-rule="evenodd" clip-rule="evenodd" d="M15.7474 0C12.1316 0.425676 8.93848 1.7027 6.16797 4.20946L9.12631 7.56757L15.7474 0Z" fill="#E22EFF"/>
    <path fill-rule="evenodd" clip-rule="evenodd" d="M31.2434 14.7564V28.378C32.5582 26.6753 33.5913 24.7834 34.2018 22.7024C34.3896 22.0875 34.5305 21.4726 34.6713 20.8105C34.8592 19.7226 35 18.6348 35 17.4524C35 14.5672 34.3896 11.9659 33.1687 9.55371C33.3565 13.101 31.2434 14.7564 31.2434 14.7564Z" fill="#E22EFF"/>
    <defs>
        <linearGradient id="paint0_linear" x1="17.3979" y1="0" x2="17.3979" y2="35" gradientUnits="userSpaceOnUse">
            <stop stop-color="#66D1FF"/>
            <stop offset="1" stop-color="#9C5CFF"/>
        </linearGradient>
    </defs>
    <svg width="35" height="35" viewBox="0 0 35 35" fill="none" xmlns="http://www.w3.org/2000/svg">
        <ellipse opacity="0.5" cx="17.3979" cy="17.5" rx="17.3979" ry="17.5" fill="url(#paint0_linear)"/>
        <defs>
            <linearGradient id="paint0_linear" x1="17.3979" y1="0" x2="17.3979" y2="35" gradientUnits="userSpaceOnUse">
                <stop stop-color="#66D1FF"/>
                <stop offset="1" stop-color="#9C5CFF"/>
            </linearGradient>
        </defs>
    </svg>

</svg>





