<svg width="106" height="35" viewBox="0 0 106 35" fill="none" xmlns="http://www.w3.org/2000/svg">
    <g clip-path="url(#clip0)">
        <ellipse opacity="0.5" cx="17.0778" cy="17.5" rx="17.6667" ry="17.5" fill="url(#paint0_linear)"/>
        <path fill-rule="evenodd" clip-rule="evenodd" d="M79.0112 15.4662C77.6761 14.2365 76.0549 13.6689 74.0045 13.6689C72.0018 13.6689 70.3329 14.2838 68.9977 15.4662C67.6626 16.6487 67.0427 18.1622 67.0427 19.9595C67.0427 21.7568 67.7103 23.2703 68.9977 24.4527C70.3329 25.6352 71.9541 26.25 74.0045 26.25C76.0072 26.25 77.6761 25.6825 79.0112 24.4527C80.3464 23.2703 80.9662 21.7568 80.9662 19.9595C81.0139 18.1149 80.3464 16.6487 79.0112 15.4662ZM74.0045 22.6554C72.4309 22.6554 71.2865 21.5203 71.2865 19.9122C71.2865 18.3987 72.4309 17.1689 74.0045 17.1689C75.578 17.1689 76.7224 18.3514 76.7224 19.9122C76.7224 21.5203 75.578 22.6554 74.0045 22.6554Z" fill="url(#paint1_linear)"/>
        <path fill-rule="evenodd" clip-rule="evenodd" d="M21.1238 17.5V29.0878C21.1238 29.7973 21.3622 30.3176 21.8867 30.6959C22.4112 31.0743 23.0311 31.2162 23.7464 31.2162C24.4616 31.2162 25.0338 31.027 25.5583 30.6959C26.0828 30.3176 26.3213 29.7973 26.3213 29.0878V17.5C25.5106 17.6892 24.6047 17.8311 23.651 17.8311C22.8404 17.8311 21.9821 17.7365 21.1238 17.5Z" fill="#E22EFF"/>
        <path fill-rule="evenodd" clip-rule="evenodd" d="M6.19883 31.1214V21.189H0C0.810616 25.2565 3.33783 28.8038 6.19883 31.1214Z" fill="#E22EFF"/>
        <path fill-rule="evenodd" clip-rule="evenodd" d="M4.43457 17.5H12.5407V9.45947L8.48765 13.7635L4.43457 9.45947V17.5Z" fill="#E22EFF"/>
        <path fill-rule="evenodd" clip-rule="evenodd" d="M28.2761 8.74991C28.2761 7.1891 27.847 5.95937 26.941 5.10802C26.0827 4.20937 25.0337 3.78369 23.7939 3.78369C22.5065 3.78369 21.4574 4.20937 20.5514 5.06072C19.6455 5.91207 19.2163 7.1418 19.2163 8.74991C19.2163 10.3107 19.6455 11.4932 20.5514 12.3918C21.4574 13.2905 22.5065 13.7161 23.7462 13.7161C24.986 13.7161 26.035 13.2905 26.941 12.3918C27.847 11.4932 28.2761 10.3107 28.2761 8.74991Z" fill="#E22EFF"/>
        <path fill-rule="evenodd" clip-rule="evenodd" d="M10.6335 21.2837V33.7229C12.6839 34.5269 14.9727 34.9999 17.3092 34.9999C18.4536 34.9999 19.5503 34.9053 20.647 34.7161C19.9795 34.4323 19.3119 34.1959 18.7397 33.7229C17.3092 32.635 16.5463 31.1215 16.5463 29.1823V21.2837H10.6335Z" fill="#E22EFF"/>
        <path fill-rule="evenodd" clip-rule="evenodd" d="M15.4017 0C11.7301 0.425676 8.48763 1.7027 5.67432 4.20946L8.67836 7.56757L15.4017 0Z" fill="#E22EFF"/>
        <path fill-rule="evenodd" clip-rule="evenodd" d="M83.6843 10.5945V13.5742H81.7292V17.1688H83.6843V22.0404C83.6843 22.8445 83.8273 23.5539 84.0657 24.0742C84.3041 24.5945 84.6856 25.0201 85.1148 25.3512C85.5439 25.6823 86.0207 25.9188 86.5929 26.0607C87.1651 26.2026 87.7373 26.2499 88.3572 26.2499C89.597 26.2499 90.7414 26.0607 91.7427 25.7296V22.3715C91.409 22.5134 91.0752 22.5607 90.7414 22.608C90.4076 22.6553 90.0738 22.6553 89.74 22.6553C88.6433 22.6553 88.1188 22.135 88.1188 21.1418V17.1688H91.5043V13.5742H88.1188V8.65527C86.6883 9.45933 85.2101 10.0742 83.6843 10.5945Z" fill="url(#paint2_linear)"/>
        <path fill-rule="evenodd" clip-rule="evenodd" d="M93.6023 13.4795V21.1417C93.6023 24.2633 95.2712 26.2498 97.9892 26.2498C99.4197 26.2498 100.659 25.6822 101.708 24.5471V25.966H106V13.4795H101.708V21.2835C101.184 22.0403 100.516 22.3714 99.6581 22.3714C98.6567 22.3714 97.8938 21.8038 97.8938 20.2903V13.4795H93.6023Z" fill="url(#paint3_linear)"/>
        <path fill-rule="evenodd" clip-rule="evenodd" d="M45.4424 13.8106V26.2498H49.7816V18.493C50.2584 17.7362 50.926 17.3579 51.7366 17.3579C52.7856 17.3579 53.3101 18.02 53.3101 19.3444V26.2498H57.6493V18.493C58.0785 17.7362 58.746 17.3579 59.6043 17.3579C60.6534 17.3579 61.1779 18.02 61.1779 19.3444V26.2498H65.5171V18.493C65.5171 15.2295 63.7051 13.4795 61.0825 13.4795C59.4136 13.4795 57.84 14.3781 57.0294 15.5606C56.4572 14.52 55.2175 13.4795 53.5962 13.4795C51.975 13.4795 50.6875 14.0471 49.7816 15.2768V13.8106H45.4424Z" fill="url(#paint4_linear)"/>
        <path fill-rule="evenodd" clip-rule="evenodd" d="M31.1372 14.7569V28.3785C32.4723 26.6758 33.5214 24.7839 34.1413 22.7028C34.332 22.088 34.475 21.4731 34.6181 20.811C34.8088 19.7231 34.9519 18.6353 34.9519 17.4528C34.9519 14.5677 34.332 11.9664 33.0922 9.5542C33.283 13.1015 31.1372 14.7569 31.1372 14.7569Z" fill="#E22EFF"/>
    </g>
    <defs>
        <linearGradient id="paint0_linear" x1="17.0778" y1="0" x2="17.0778" y2="35" gradientUnits="userSpaceOnUse">
            <stop stop-color="#66D1FF"/>
            <stop offset="1" stop-color="#9C5CFF"/>
        </linearGradient>
        <linearGradient id="paint1_linear" x1="74.0057" y1="13.6689" x2="74.0057" y2="26.25" gradientUnits="userSpaceOnUse">
            <stop stop-color="#66D1FF"/>
            <stop offset="1" stop-color="#9C5CFF"/>
        </linearGradient>
        <linearGradient id="paint2_linear" x1="86.736" y1="8.65527" x2="86.736" y2="26.2499" gradientUnits="userSpaceOnUse">
            <stop stop-color="#66D1FF"/>
            <stop offset="1" stop-color="#9C5CFF"/>
        </linearGradient>
        <linearGradient id="paint3_linear" x1="99.8011" y1="13.4795" x2="99.8011" y2="26.2498" gradientUnits="userSpaceOnUse">
            <stop stop-color="#66D1FF"/>
            <stop offset="1" stop-color="#9C5CFF"/>
        </linearGradient>
        <linearGradient id="paint4_linear" x1="55.4797" y1="13.4795" x2="55.4797" y2="26.2498" gradientUnits="userSpaceOnUse">
            <stop stop-color="#66D1FF"/>
            <stop offset="1" stop-color="#9C5CFF"/>
        </linearGradient>
        <clipPath id="clip0">
            <rect width="106" height="35" fill="white"/>
        </clipPath>
    </defs>
</svg>




