<svg width="40" height="40" viewBox="0 0 40 40" fill="none" xmlns="http://www.w3.org/2000/svg">
    <circle opacity="0.8" cx="20" cy="20" r="20" fill="white"/>
    <path d="M12 23V16.5C12 15.3065 12.4741 14.1619 13.318 13.318C14.1619 12.4741 15.3065 12 16.5 12C17.6935 12 18.8381 12.4741 19.682 13.318C20.5259 14.1619 21 15.3065 21 16.5V23.5C21 24.163 21.2634 24.7989 21.7322 25.2678C22.2011 25.7366 22.837 26 23.5 26C24.163 26 24.7989 25.7366 25.2678 25.2678C25.7366 24.7989 26 24.163 26 23.5V16.83C25.3325 16.5941 24.7699 16.1298 24.4116 15.5192C24.0534 14.9086 23.9225 14.191 24.0422 13.4932C24.1619 12.7954 24.5244 12.1625 25.0656 11.7061C25.6069 11.2498 26.292 10.9995 27 10.9995C27.708 10.9995 28.3931 11.2498 28.9344 11.7061C29.4756 12.1625 29.8381 12.7954 29.9578 13.4932C30.0775 14.191 29.9466 14.9086 29.5884 15.5192C29.2301 16.1298 28.6675 16.5941 28 16.83V23.5C28 24.6935 27.5259 25.8381 26.682 26.682C25.8381 27.5259 24.6935 28 23.5 28C22.3065 28 21.1619 27.5259 20.318 26.682C19.4741 25.8381 19 24.6935 19 23.5V16.5C19 15.837 18.7366 15.2011 18.2678 14.7322C17.7989 14.2634 17.163 14 16.5 14C15.837 14 15.2011 14.2634 14.7322 14.7322C14.2634 15.2011 14 15.837 14 16.5V23H17L13 28L9 23H12Z" fill="#0B0B0B"/>
</svg>
