<svg width="35" height="35" viewBox="0 0 35 35" fill="none" xmlns="http://www.w3.org/2000/svg">
    <path opacity="0.8" d="M11.14 16.72H11.99C11.9367 16.1333 11.7367 15.6867 11.39 15.38C11.0433 15.0667 10.5767 14.91 9.99 14.91C9.48333 14.91 9.06333 15.0167 8.73 15.23C8.39667 15.4433 8.13 15.7267 7.93 16.08C7.73 16.4333 7.58667 16.84 7.5 17.3C7.42 17.7533 7.38 18.2233 7.38 18.71C7.38 19.0833 7.40667 19.47 7.46 19.87C7.52 20.27 7.63667 20.6367 7.81 20.97C7.98333 21.3033 8.23 21.5767 8.55 21.79C8.87 22.0033 9.29333 22.11 9.82 22.11C10.2667 22.11 10.64 22.0367 10.94 21.89C11.2467 21.7367 11.49 21.5467 11.67 21.32C11.8567 21.0867 11.99 20.83 12.07 20.55C12.15 20.27 12.19 20 12.19 19.74C12.19 19.4133 12.14 19.11 12.04 18.83C11.94 18.55 11.7967 18.3067 11.61 18.1C11.43 17.8933 11.2033 17.7333 10.93 17.62C10.6633 17.5 10.36 17.44 10.02 17.44C9.63333 17.44 9.29 17.5133 8.99 17.66C8.69667 17.8067 8.45 18.0433 8.25 18.37L8.23 18.35C8.23667 18.0767 8.26333 17.7833 8.31 17.47C8.35667 17.1567 8.44 16.8667 8.56 16.6C8.68667 16.3267 8.86 16.1033 9.08 15.93C9.3 15.75 9.59 15.66 9.95 15.66C10.29 15.66 10.5633 15.7567 10.77 15.95C10.9767 16.1433 11.1 16.4 11.14 16.72ZM9.86 18.19C10.1 18.19 10.31 18.2333 10.49 18.32C10.67 18.4067 10.82 18.5233 10.94 18.67C11.06 18.81 11.1467 18.98 11.2 19.18C11.26 19.3733 11.29 19.58 11.29 19.8C11.29 20.0067 11.2567 20.2067 11.19 20.4C11.13 20.5867 11.04 20.7533 10.92 20.9C10.8 21.0467 10.65 21.1633 10.47 21.25C10.2967 21.33 10.0933 21.37 9.86 21.37C9.62667 21.37 9.41667 21.33 9.23 21.25C9.05 21.1633 8.89667 21.05 8.77 20.91C8.65 20.77 8.55667 20.6033 8.49 20.41C8.42333 20.2167 8.39 20.01 8.39 19.79C8.39 19.57 8.42 19.3633 8.48 19.17C8.54667 18.97 8.64333 18.8 8.77 18.66C8.89667 18.5133 9.05 18.4 9.23 18.32C9.41 18.2333 9.62 18.19 9.86 18.19ZM13.8766 18.51C13.8766 18.3367 13.8766 18.1467 13.8766 17.94C13.8833 17.7267 13.9 17.5167 13.9266 17.31C13.96 17.0967 14.0033 16.89 14.0566 16.69C14.1166 16.49 14.2 16.3167 14.3066 16.17C14.42 16.0167 14.56 15.8933 14.7266 15.8C14.8933 15.7067 15.0966 15.66 15.3366 15.66C15.5766 15.66 15.78 15.7067 15.9466 15.8C16.1133 15.8933 16.25 16.0167 16.3566 16.17C16.47 16.3167 16.5533 16.49 16.6066 16.69C16.6666 16.89 16.71 17.0967 16.7366 17.31C16.77 17.5167 16.7866 17.7267 16.7866 17.94C16.7933 18.1467 16.7966 18.3367 16.7966 18.51C16.7966 18.7767 16.7866 19.0767 16.7666 19.41C16.7533 19.7367 16.7 20.0467 16.6066 20.34C16.52 20.6267 16.3766 20.87 16.1766 21.07C15.9766 21.27 15.6966 21.37 15.3366 21.37C14.9766 21.37 14.6966 21.27 14.4966 21.07C14.2966 20.87 14.15 20.6267 14.0566 20.34C13.97 20.0467 13.9166 19.7367 13.8966 19.41C13.8833 19.0767 13.8766 18.7767 13.8766 18.51ZM12.9766 18.52C12.9766 18.78 12.9833 19.05 12.9966 19.33C13.01 19.61 13.0433 19.8833 13.0966 20.15C13.15 20.4167 13.2266 20.67 13.3266 20.91C13.4266 21.1433 13.5633 21.35 13.7366 21.53C13.91 21.71 14.1266 21.8533 14.3866 21.96C14.6533 22.06 14.97 22.11 15.3366 22.11C15.71 22.11 16.0266 22.06 16.2866 21.96C16.5466 21.8533 16.7633 21.71 16.9366 21.53C17.11 21.35 17.2466 21.1433 17.3466 20.91C17.4466 20.67 17.5233 20.4167 17.5766 20.15C17.63 19.8833 17.6633 19.61 17.6766 19.33C17.69 19.05 17.6966 18.78 17.6966 18.52C17.6966 18.26 17.69 17.99 17.6766 17.71C17.6633 17.43 17.63 17.1567 17.5766 16.89C17.5233 16.6233 17.4466 16.37 17.3466 16.13C17.2466 15.89 17.11 15.68 16.9366 15.5C16.7633 15.32 16.5433 15.1767 16.2766 15.07C16.0166 14.9633 15.7033 14.91 15.3366 14.91C14.97 14.91 14.6533 14.9633 14.3866 15.07C14.1266 15.1767 13.91 15.32 13.7366 15.5C13.5633 15.68 13.4266 15.89 13.3266 16.13C13.2266 16.37 13.15 16.6233 13.0966 16.89C13.0433 17.1567 13.01 17.43 12.9966 17.71C12.9833 17.99 12.9766 18.26 12.9766 18.52ZM19.7833 16.92C19.7833 16.7667 19.7933 16.6067 19.8133 16.44C19.8333 16.2667 19.8733 16.11 19.9333 15.97C19.9999 15.8233 20.0899 15.7033 20.2033 15.61C20.3166 15.51 20.4666 15.46 20.6533 15.46C20.8466 15.46 20.9966 15.51 21.1033 15.61C21.2166 15.7033 21.3033 15.8233 21.3633 15.97C21.4233 16.11 21.4599 16.2667 21.4733 16.44C21.4933 16.6067 21.5033 16.7633 21.5033 16.91C21.5033 17.0633 21.4933 17.2267 21.4733 17.4C21.4533 17.5733 21.4099 17.7333 21.3433 17.88C21.2833 18.02 21.1966 18.1367 21.0833 18.23C20.9699 18.3233 20.8166 18.37 20.6233 18.37C20.4366 18.37 20.2866 18.3233 20.1733 18.23C20.0666 18.13 19.9833 18.01 19.9233 17.87C19.8633 17.7233 19.8233 17.5667 19.8033 17.4C19.7899 17.2267 19.7833 17.0667 19.7833 16.92ZM19.0333 16.94C19.0333 17.2133 19.0599 17.47 19.1133 17.71C19.1733 17.95 19.2666 18.16 19.3933 18.34C19.5199 18.52 19.6866 18.6633 19.8933 18.77C20.0999 18.87 20.3533 18.92 20.6533 18.92C20.9466 18.92 21.1933 18.8633 21.3933 18.75C21.5933 18.6367 21.7566 18.49 21.8833 18.31C22.0166 18.1233 22.1099 17.91 22.1633 17.67C22.2233 17.4233 22.2533 17.17 22.2533 16.91C22.2533 16.6367 22.2266 16.38 22.1733 16.14C22.1266 15.8933 22.0399 15.68 21.9133 15.5C21.7933 15.32 21.6299 15.1767 21.4233 15.07C21.2233 14.9633 20.9666 14.91 20.6533 14.91C20.3466 14.91 20.0899 14.9667 19.8833 15.08C19.6766 15.1867 19.5099 15.3333 19.3833 15.52C19.2566 15.7067 19.1666 15.9233 19.1133 16.17C19.0599 16.41 19.0333 16.6667 19.0333 16.94ZM24.7233 20.12C24.7233 19.9667 24.7333 19.8067 24.7533 19.64C24.7733 19.4667 24.8133 19.31 24.8733 19.17C24.9399 19.0233 25.0299 18.9033 25.1433 18.81C25.2566 18.71 25.4066 18.66 25.5933 18.66C25.7866 18.66 25.9366 18.71 26.0433 18.81C26.1566 18.9033 26.2433 19.0233 26.3033 19.17C26.3633 19.31 26.3999 19.4667 26.4133 19.64C26.4333 19.8067 26.4433 19.9633 26.4433 20.11C26.4433 20.2633 26.4333 20.4267 26.4133 20.6C26.3933 20.7733 26.3499 20.9333 26.2833 21.08C26.2233 21.22 26.1366 21.3367 26.0233 21.43C25.9099 21.5233 25.7566 21.57 25.5633 21.57C25.3766 21.57 25.2266 21.5233 25.1133 21.43C25.0066 21.33 24.9233 21.21 24.8633 21.07C24.8033 20.9233 24.7633 20.7667 24.7433 20.6C24.7299 20.4267 24.7233 20.2667 24.7233 20.12ZM23.9733 20.14C23.9733 20.4133 23.9999 20.67 24.0533 20.91C24.1133 21.15 24.2066 21.36 24.3333 21.54C24.4599 21.7133 24.6266 21.8533 24.8333 21.96C25.0399 22.06 25.2933 22.11 25.5933 22.11C25.8866 22.11 26.1333 22.0567 26.3333 21.95C26.5333 21.8367 26.6966 21.69 26.8233 21.51C26.9566 21.3233 27.0499 21.11 27.1033 20.87C27.1633 20.6233 27.1933 20.37 27.1933 20.11C27.1933 19.8367 27.1666 19.58 27.1133 19.34C27.0666 19.0933 26.9799 18.88 26.8533 18.7C26.7333 18.52 26.5699 18.3767 26.3633 18.27C26.1633 18.1633 25.9066 18.11 25.5933 18.11C25.2866 18.11 25.0299 18.1667 24.8233 18.28C24.6166 18.3867 24.4499 18.5333 24.3233 18.72C24.1966 18.9067 24.1066 19.1233 24.0533 19.37C23.9999 19.61 23.9733 19.8667 23.9733 20.14ZM25.3733 14.78L19.9933 22.21H20.8533L26.2233 14.78H25.3733Z" fill="#72808A"/>
    <circle cx="17.5" cy="17.5" r="16" stroke="#F3F5F8" stroke-width="3"/>
    <path d="M17.5088 33.5C14.7927 33.5015 12.121 32.8115 9.74521 31.4951C7.36946 30.1787 5.36793 28.2791 3.92918 25.9754C2.49043 23.6717 1.66181 21.0396 1.5214 18.3272C1.38098 15.6147 1.93338 12.9111 3.12657 10.4712C4.31975 8.0312 6.11444 5.93513 8.34156 4.38043C10.5687 2.82573 13.1549 1.86358 15.8567 1.58462C18.5584 1.30565 21.2867 1.71905 23.7845 2.78588C26.2823 3.8527 28.4674 5.53783 30.134 7.68252" stroke="#FFBD2E" stroke-width="3" stroke-linecap="round"/>
</svg>
