<svg width="24" height="24" viewBox="0 0 24 24" fill="none" xmlns="http://www.w3.org/2000/svg">
<path d="M7.05043 5.39902C7.38162 5.15025 7.44844 4.6801 7.19967 4.34891C6.95091 4.01772 6.48076 3.9509 6.14957 4.19967L7.05043 5.39902ZM17.8504 4.19967C17.5192 3.9509 17.0491 4.01772 16.8003 4.34891C16.5516 4.6801 16.6184 5.15025 16.9496 5.39902L17.8504 4.19967ZM12.75 3C12.75 2.58579 12.4142 2.25 12 2.25C11.5858 2.25 11.25 2.58579 11.25 3H12.75ZM11.25 13.35C11.25 13.7642 11.5858 14.1 12 14.1C12.4142 14.1 12.75 13.7642 12.75 13.35H11.25ZM20.25 12C20.25 16.5563 16.5563 20.25 12 20.25V21.75C17.3848 21.75 21.75 17.3848 21.75 12H20.25ZM12 20.25C7.44365 20.25 3.75 16.5563 3.75 12H2.25C2.25 17.3848 6.61522 21.75 12 21.75V20.25ZM3.75 12C3.75 9.30138 5.0449 6.90543 7.05043 5.39902L6.14957 4.19967C3.78309 5.9772 2.25 8.80967 2.25 12H3.75ZM16.9496 5.39902C18.9551 6.90543 20.25 9.30138 20.25 12H21.75C21.75 8.80967 20.2169 5.9772 17.8504 4.19967L16.9496 5.39902ZM11.25 3V13.35H12.75V3H11.25Z" fill="#4A4A4A"/>
</svg>
