<svg width="24" height="24" viewBox="0 0 24 24" fill="none" xmlns="http://www.w3.org/2000/svg">
    <path d="M17 17.9998V15.9998H17.5C18.0771 15.9998 18.6451 15.857 19.1537 15.5843C19.6622 15.3116 20.0954 14.9174 20.4147 14.4367C20.7341 13.9561 20.9296 13.404 20.984 12.8295C21.0383 12.255 20.9498 11.676 20.7263 11.1441C20.5028 10.6121 20.1512 10.1436 19.7028 9.78035C19.2545 9.4171 18.7232 9.17034 18.1565 9.06204C17.5897 8.95373 17.0049 8.98724 16.4542 9.15958C15.9035 9.33192 15.404 9.63775 15 10.0498V9.99983C14.9996 8.89993 14.6969 7.8213 14.1249 6.88182C13.553 5.94234 12.7337 5.17816 11.7568 4.6728C10.7799 4.16743 9.68284 3.94033 8.58556 4.01631C7.48829 4.09229 6.43301 4.46843 5.53506 5.10362C4.63711 5.73881 3.93103 6.60861 3.494 7.61796C3.05697 8.62731 2.9058 9.73737 3.057 10.8268C3.20821 11.9163 3.65598 12.9432 4.35138 13.7954C5.04678 14.6476 5.96304 15.2922 7.00004 15.6588V17.7478C5.67375 17.4046 4.45781 16.7266 3.46874 15.7787C2.47966 14.8307 1.75058 13.6447 1.35136 12.3342C0.952139 11.0237 0.89615 9.6326 1.18876 8.29424C1.48136 6.95588 2.11276 5.71509 3.02246 4.69074C3.93216 3.6664 5.08966 2.89282 6.38408 2.44415C7.6785 1.99547 9.06645 1.88672 10.415 2.12831C11.7635 2.36991 13.0273 2.95375 14.0855 3.82391C15.1436 4.69407 15.9605 5.82138 16.458 7.09783C17.2101 6.95394 17.9839 6.96866 18.7299 7.14105C19.4759 7.31344 20.1778 7.63969 20.7904 8.09894C21.4031 8.55818 21.9131 9.1403 22.2879 9.80801C22.6626 10.4757 22.8938 11.2143 22.9667 11.9765C23.0395 12.7388 22.9524 13.5078 22.711 14.2344C22.4695 14.961 22.0789 15.6292 21.5644 16.1962C21.0498 16.7632 20.4225 17.2165 19.7226 17.527C19.0227 17.8376 18.2657 17.9987 17.5 17.9998L17 18.0008V17.9998ZM9.00004 15.9998H11V19.9998H9.00004V15.9998ZM13 18.9998H15V22.9998H13V18.9998Z" fill="#00A3FF"/>
</svg>



